<svg width="24" height="24" viewBox="0 0 24 24" fill="none" xmlns="http://www.w3.org/2000/svg">
<rect width="24" height="24" rx="2" fill="#F7F7EF"/>
<path d="M11.0271 4.37858C11.1816 3.92825 11.8184 3.92825 11.9729 4.37858L13.6662 9.31427C13.7362 9.5184 13.9293 9.65456 14.1451 9.65199L19.7371 9.58522C20.2399 9.57922 20.436 10.2356 20.0124 10.5065L15.5359 13.3682C15.337 13.4953 15.2541 13.7442 15.3371 13.9651L17.1209 18.7179C17.292 19.174 16.7764 19.5806 16.3728 19.3079L11.78 16.2042C11.6108 16.0899 11.3892 16.0899 11.22 16.2042L6.6272 19.3079C6.22358 19.5806 5.70796 19.174 5.87913 18.7179L7.66292 13.9651C7.74585 13.7442 7.66297 13.4953 7.46411 13.3682L2.98763 10.5065C2.564 10.2356 2.76015 9.57922 3.26291 9.58522L8.85488 9.65199C9.07067 9.65456 9.26376 9.5184 9.33379 9.31427L11.0271 4.37858Z" fill="#9BAE78"/>
</svg>
