<svg width="24" height="24" viewBox="0 0 24 24" fill="none" xmlns="http://www.w3.org/2000/svg">
<rect width="24" height="24" rx="2" fill="#F7F7EF"/>
<path d="M11.134 2.5C11.5189 1.83333 12.4811 1.83333 12.866 2.5L13.7321 4C14.117 4.66667 13.6358 5.5 12.866 5.5H11.134C10.3642 5.5 9.88305 4.66667 10.2679 4L11.134 2.5Z" fill="#9E9E9E"/>
<rect x="4" y="4" width="16" height="2" rx="1" fill="#9E9E9E"/>
<rect x="6" y="4.68945" width="0.688956" height="13" rx="0.344478" transform="rotate(-90 6 4.68945)" fill="#6A6A6A" fill-opacity="0.08"/>
<rect x="6" y="4.68945" width="0.688956" height="13" rx="0.344478" transform="rotate(-90 6 4.68945)" fill="#6A6A6A" fill-opacity="0.08"/>
<rect x="5" y="7" width="14" height="15" rx="2" fill="#9E9E9E"/>
<rect x="7" y="8" width="1" height="13" rx="0.5" fill="#6A6A6A" fill-opacity="0.08"/>
<rect x="7" y="8" width="1" height="13" rx="0.5" fill="#6A6A6A" fill-opacity="0.08"/>
<rect x="9" y="8" width="1" height="13" rx="0.5" fill="#6A6A6A" fill-opacity="0.08"/>
<rect x="9" y="8" width="1" height="13" rx="0.5" fill="#6A6A6A" fill-opacity="0.08"/>
<rect x="11" y="8" width="1" height="13" rx="0.5" fill="#6A6A6A" fill-opacity="0.08"/>
<rect x="11" y="8" width="1" height="13" rx="0.5" fill="#6A6A6A" fill-opacity="0.08"/>
<rect x="13" y="8" width="1" height="13" rx="0.5" fill="#6A6A6A" fill-opacity="0.08"/>
<rect x="13" y="8" width="1" height="13" rx="0.5" fill="#6A6A6A" fill-opacity="0.08"/>
<rect x="15" y="8" width="1" height="13" rx="0.5" fill="#6A6A6A" fill-opacity="0.08"/>
<rect x="15" y="8" width="1" height="13" rx="0.5" fill="#6A6A6A" fill-opacity="0.08"/>
<rect x="17" y="8" width="1" height="13" rx="0.5" fill="#6A6A6A" fill-opacity="0.08"/>
<rect x="17" y="8" width="1" height="13" rx="0.5" fill="#6A6A6A" fill-opacity="0.08"/>
</svg>
