<svg width="24" height="24" viewBox="0 0 24 24" fill="none" xmlns="http://www.w3.org/2000/svg">
<ellipse cx="12" cy="11.5" rx="11" ry="10.5" fill="#A280B2"/>
<path d="M10.7216 14.9091V14.8239C10.7311 13.9195 10.8258 13.1998 11.0057 12.6648C11.1856 12.1297 11.4413 11.6965 11.7727 11.3651C12.1042 11.0336 12.5019 10.7282 12.9659 10.4489C13.2453 10.2784 13.4962 10.0772 13.7188 9.84517C13.9413 9.60843 14.1165 9.33617 14.2443 9.02841C14.3769 8.72064 14.4432 8.37973 14.4432 8.00568C14.4432 7.54167 14.3343 7.1392 14.1165 6.7983C13.8987 6.45739 13.6075 6.1946 13.2429 6.00994C12.8783 5.82528 12.4735 5.73295 12.0284 5.73295C11.6402 5.73295 11.2661 5.81345 10.9062 5.97443C10.5464 6.13542 10.2457 6.38873 10.0043 6.73438C9.76278 7.08002 9.62311 7.5322 9.58523 8.09091H7.79545C7.83333 7.28598 8.04167 6.59706 8.42045 6.02415C8.80398 5.45123 9.30824 5.01326 9.93324 4.71023C10.563 4.4072 11.2614 4.25568 12.0284 4.25568C12.8617 4.25568 13.5862 4.4214 14.2017 4.75284C14.822 5.08428 15.3002 5.53883 15.6364 6.11648C15.9773 6.69413 16.1477 7.35227 16.1477 8.09091C16.1477 8.61174 16.0672 9.08286 15.9062 9.50426C15.75 9.92566 15.5227 10.3021 15.2244 10.6335C14.9309 10.965 14.5758 11.2585 14.1591 11.5142C13.7424 11.7746 13.4086 12.0492 13.1577 12.3381C12.9067 12.6222 12.7244 12.9607 12.6108 13.3537C12.4972 13.7467 12.4356 14.2367 12.4261 14.8239V14.9091H10.7216ZM11.6307 19.1136C11.2803 19.1136 10.9796 18.9882 10.7287 18.7372C10.4777 18.4863 10.3523 18.1856 10.3523 17.8352C10.3523 17.4848 10.4777 17.1842 10.7287 16.9332C10.9796 16.6823 11.2803 16.5568 11.6307 16.5568C11.9811 16.5568 12.2817 16.6823 12.5327 16.9332C12.7836 17.1842 12.9091 17.4848 12.9091 17.8352C12.9091 18.0672 12.8499 18.2803 12.7315 18.4744C12.6179 18.6686 12.464 18.8248 12.2699 18.9432C12.0805 19.0568 11.8674 19.1136 11.6307 19.1136Z" fill="#D3C0D4"/>
</svg>
