<svg width="24" height="24" viewBox="0 0 24 24" fill="none" xmlns="http://www.w3.org/2000/svg">
<rect width="24" height="24" rx="2" fill="#F7F7EF"/>
<path d="M10.75 11.76V7.44V7.125C10.75 6.50368 11.2537 6 11.875 6V6C12.4963 6 13 6.50368 13 7.125V8.4V9.84V11.76V14.16V17.2679C13 17.4313 12.9454 17.5899 12.8448 17.7186V17.7186C12.7061 17.8962 12.4933 18 12.2679 18H11.5V18C10.6716 18 10 17.3284 10 16.5V16.08V14.91C10 14.4958 10.3358 14.16 10.75 14.16V14.16V14.16C11.1642 14.16 11.5 14.4958 11.5 14.91V16.08" stroke="#9E9E9E"/>
</svg>
